<?xml version="1.0" encoding="utf-8"?>
<!-- Generator: Adobe Illustrator 23.0.3, SVG Export Plug-In . SVG Version: 6.00 Build 0)  -->
<svg version="1.1" id="Layer_1" xmlns="http://www.w3.org/2000/svg" xmlns:xlink="http://www.w3.org/1999/xlink" x="0px" y="0px"
	 viewBox="0 0 500 500" style="enable-background:new 0 0 500 500;" xml:space="preserve">
<style type="text/css">
	.st0{fill:#009183;stroke:#009183;stroke-miterlimit:10;}
	.st1{fill:#FFFFFF;}
	.st2{fill:#FFED00;}
</style>
<circle class="st0" cx="250" cy="250" r="250"/>
<path class="st1" d="M163.94,322.51c-14.6,2.74-28.91,5.46-43.22,8.11c-5.25,0.97-8.92-1.68-9.57-6.74
	c-0.59-4.57,1.92-7.95,6.82-8.89c12.91-2.48,25.84-4.88,39.52-7.45c-2.08-5.12-4.01-9.87-6.13-15.08c-4.6,0.87-9.18,1.78-13.78,2.58
	c-5.12,0.88-8.65-1.55-9.41-6.34c-0.77-4.8,1.74-8.23,6.88-9.32c3.05-0.64,6.12-1.16,9.81-1.85c-2.15-5.24-4.1-10-6.18-15.07
	c-10.38,1.95-20.52,3.85-30.66,5.76c-8.93,1.68-17.86,3.39-26.8,5.04c-5.58,1.03-9.13-1.15-10.02-6.05
	c-0.94-5.11,1.72-8.53,7.61-9.64c17.54-3.32,35.08-6.6,53.45-10.06c-2.42-5.78-4.57-11.17-6.9-16.46
	c-5.04-11.38-10.07-22.75-15.33-34.02c-1.3-2.78-3.3-5.23-5.2-7.64c-4.48-5.73-10.16-7.81-17.16-6.41
	c-11.83,2.37-23.7,4.5-35.57,6.71c-5.73,1.07-9.41-1.27-10.16-6.47c-0.71-4.91,1.9-8.14,7.56-9.21c12.01-2.28,24.04-4.46,36.04-6.8
	c12.33-2.41,22.43,1.6,30.67,11.49c8.42,10.11,13.3,22.32,18.35,34.45c0.13,0.3,0.28,0.59,0.67,1.41c1.5-0.28,3.15-0.59,4.8-0.9
	c77.15-14.52,154.31-29.04,231.46-43.56c9.99-1.88,12.92,0.87,12.21,11.69c-2.7,41.46-5.42,82.91-8.16,124.38
	c-0.5,7.68-1.93,9.28-9.15,10.63c-56.06,10.54-112.12,21.08-168.17,31.62c-1.81,0.34-3.61,0.68-7.09,1.34
	c4.92,6.22,8.74,11.8,13.32,16.58c3.72,3.88,8.84,3.59,13.77,2.66c44.81-8.44,89.63-16.87,134.44-25.31
	c6.47-1.21,12.93-2.47,19.41-3.65c5.11-0.93,8.68,1.39,9.58,6.11c0.95,4.98-1.62,8.55-7.08,9.58c-51.9,9.77-103.8,19.54-155.7,29.27
	c-12.84,2.41-22.88-2.8-30.98-13.14c-8.41-10.74-13.08-23.64-18.43-36.13C167.67,331.51,165.93,327.26,163.94,322.51 M226.3,229.65
	c-1.25-5.39-2.37-10.28-3.48-15.09c-12.43,2.33-24.2,4.55-36.13,6.79c1.53,5.16,2.96,9.99,4.42,14.91
	C202.82,234.06,214.17,231.93,226.3,229.65 M288.52,202.15c0.89,5.33,1.71,10.26,2.52,15.14c11.67-2.2,23.12-4.35,34.59-6.51
	c-0.27-5.29-0.52-10.25-0.78-15.47C312.9,197.56,301.11,199.78,288.52,202.15 M241.29,226.5c11.59-2.18,22.66-4.26,34.07-6.41
	c-0.64-5.31-1.23-10.15-1.82-15.14c-12.09,2.27-23.55,4.42-35.56,6.68C239.13,216.83,240.23,221.73,241.29,226.5 M230.01,245.58
	c-11.92,2.25-23.08,4.34-34.4,6.47c1.53,5.14,2.96,9.98,4.38,14.77c11.2-2.1,22.04-4.14,33.28-6.26
	C232.15,255.41,231.11,250.61,230.01,245.58 M292.02,233.84c0.62,5.2,1.21,10.2,1.81,15.4c11.44-2.15,22.29-4.19,33.29-6.25
	c-0.25-5.29-0.49-10.33-0.74-15.61C314.88,229.54,303.7,231.64,292.02,233.84 M204.48,282.63c1.58,5.3,3.04,10.14,4.46,14.89
	c10.62-1.99,20.85-3.91,31.51-5.92c-1.21-5.22-2.35-10.1-3.5-15.07C225.84,278.62,215.42,280.58,204.48,282.63 M327.9,259.58
	c-11.04,2.08-21.55,4.05-32.52,6.11c0.64,5.26,1.26,10.23,1.88,15.25c10.95-2.07,21.18-3.98,31.46-5.92
	C328.44,269.78,328.18,264.83,327.9,259.58 M248.43,257.85c10.5-1.97,20.15-3.79,30.3-5.7c-0.6-5.17-1.18-10.17-1.78-15.34
	c-10.88,2.04-21.23,3.99-31.9,6C246.21,247.98,247.29,252.78,248.43,257.85 M247.56,322.8c-1.25-5.4-2.38-10.28-3.5-15.06
	c-10.58,2-20.49,3.86-30.59,5.75c1.54,5.17,2.97,9.99,4.43,14.88C227.83,326.51,237.31,324.74,247.56,322.8 M300.54,312.64
	c10.21-1.92,19.93-3.75,29.67-5.58c-0.25-5.32-0.48-10.27-0.73-15.47c-10.14,1.91-20.09,3.78-30.61,5.76
	C299.43,302.42,299.98,307.42,300.54,312.64 M141.62,229.77c2.1,5.04,4.1,9.8,6.04,14.43c9.59-1.8,18.83-3.54,28.21-5.3
	c-1.52-5.1-2.91-9.81-4.37-14.74C161.57,226.02,151.81,227.85,141.62,229.77 M280.38,268.53c-9.8,1.84-18.79,3.53-28.24,5.31
	c1.18,5.24,2.29,10.12,3.37,14.91c9.18-1.73,17.69-3.33,26.58-5C281.5,278.55,280.96,273.68,280.38,268.53 M368.05,187.3
	c-9.66,1.82-18.82,3.53-27.99,5.26c0.24,5.32,0.47,10.28,0.71,15.41c8.88-1.68,17.59-3.31,26.33-4.95
	C367.43,197.63,367.73,192.55,368.05,187.3 M160.32,274.33c8.45-1.59,16.38-3.07,24.48-4.6c-1.51-5.12-2.94-9.96-4.36-14.81
	c-8.82,1.66-17.31,3.26-26.18,4.93C156.37,264.88,158.31,269.54,160.32,274.33 M262.61,319.96c8-1.51,15.19-2.86,22.9-4.3
	c-0.6-5.17-1.19-10.18-1.79-15.34c-8.43,1.58-16.3,3.07-24.5,4.61C260.39,310.11,261.47,314.91,262.61,319.96 M342.36,240.08
	c7.63-1.43,15.1-2.84,22.57-4.25c0.33-5.38,0.64-10.47,0.96-15.79c-8.44,1.59-16.38,3.08-24.35,4.58
	C341.83,229.9,342.09,234.86,342.36,240.08 M166.85,289.78c2.17,5.13,4.17,9.88,6.16,14.6c7.08-1.33,13.8-2.59,20.71-3.89
	c-1.48-5.09-2.89-9.92-4.35-14.94C181.96,286.93,174.8,288.28,166.85,289.78 M363.69,252.84c-7.19,1.35-13.85,2.6-20.57,3.87
	c0.26,5.32,0.51,10.34,0.77,15.58c6.46-1.22,12.54-2.37,18.9-3.56C363.09,263.42,363.39,258.23,363.69,252.84 M198.34,316.27
	c-6.28,1.18-12.34,2.31-18.83,3.54c2.11,5.04,4.11,9.79,6.12,14.6c5.75-1.08,11.22-2.11,16.99-3.19
	C201.16,326.12,199.77,321.3,198.34,316.27 M344.63,288.73c0.29,5.3,0.56,10.41,0.84,15.5c5.47-1.02,10.32-1.94,15.21-2.86
	c0.3-5.39,0.57-10.44,0.87-15.83C355.59,286.67,350.25,287.67,344.63,288.73 M163.94,322.51c-14.6,2.74-28.91,5.46-43.22,8.11
	c-5.25,0.97-8.92-1.68-9.57-6.74c-0.59-4.57,1.92-7.95,6.82-8.89c12.91-2.48,25.84-4.88,39.52-7.45c-2.08-5.12-4.01-9.87-6.13-15.08
	c-4.6,0.87-9.18,1.78-13.78,2.58c-5.12,0.88-8.65-1.55-9.41-6.34c-0.77-4.8,1.74-8.23,6.88-9.32c3.05-0.64,6.12-1.16,9.81-1.85
	c-2.15-5.24-4.1-10-6.18-15.07c-10.38,1.95-20.52,3.85-30.66,5.76c-8.93,1.68-17.86,3.39-26.8,5.04c-5.58,1.03-9.13-1.15-10.02-6.05
	c-0.94-5.11,1.72-8.53,7.61-9.64c17.54-3.32,35.08-6.6,53.45-10.06c-2.42-5.78-4.57-11.17-6.9-16.46
	c-5.04-11.38-10.07-22.75-15.33-34.02c-1.3-2.78-3.3-5.23-5.2-7.64c-4.48-5.73-10.16-7.81-17.16-6.41
	c-11.83,2.37-23.7,4.5-35.57,6.71c-5.73,1.07-9.41-1.27-10.16-6.47c-0.71-4.91,1.9-8.14,7.56-9.21c12.01-2.28,24.04-4.46,36.04-6.8
	c12.33-2.41,22.43,1.6,30.67,11.49c8.42,10.11,13.3,22.32,18.35,34.45c0.13,0.3,0.28,0.59,0.67,1.41c1.5-0.28,3.15-0.59,4.8-0.9
	c77.15-14.52,154.31-29.04,231.46-43.56c9.99-1.88,12.92,0.87,12.21,11.69c-2.7,41.46-5.42,82.91-8.16,124.38
	c-0.5,7.68-1.93,9.28-9.15,10.63c-56.06,10.54-112.12,21.08-168.17,31.62c-1.81,0.34-3.61,0.68-7.09,1.34
	c4.92,6.22,8.74,11.8,13.32,16.58c3.72,3.88,8.84,3.59,13.77,2.66c44.81-8.44,89.63-16.87,134.44-25.31
	c6.47-1.21,12.93-2.47,19.41-3.65c5.11-0.93,8.68,1.39,9.58,6.11c0.95,4.98-1.62,8.55-7.08,9.58c-51.9,9.77-103.8,19.54-155.7,29.27
	c-12.84,2.41-22.88-2.8-30.98-13.14c-8.41-10.74-13.08-23.64-18.43-36.13C167.67,331.51,165.93,327.26,163.94,322.51 M226.3,229.65
	c-1.25-5.39-2.37-10.28-3.48-15.09c-12.43,2.33-24.2,4.55-36.13,6.79c1.53,5.16,2.96,9.99,4.42,14.91
	C202.82,234.06,214.17,231.93,226.3,229.65 M288.52,202.15c0.89,5.33,1.71,10.26,2.52,15.14c11.67-2.2,23.12-4.35,34.59-6.51
	c-0.27-5.29-0.52-10.25-0.78-15.47C312.9,197.56,301.11,199.78,288.52,202.15 M241.29,226.5c11.59-2.18,22.66-4.26,34.07-6.41
	c-0.64-5.31-1.23-10.15-1.82-15.14c-12.09,2.27-23.55,4.42-35.56,6.68C239.13,216.83,240.23,221.73,241.29,226.5 M230.01,245.58
	c-11.92,2.25-23.08,4.34-34.4,6.47c1.53,5.14,2.96,9.98,4.38,14.77c11.2-2.1,22.04-4.14,33.28-6.26
	C232.15,255.41,231.11,250.61,230.01,245.58 M292.02,233.84c0.62,5.2,1.21,10.2,1.81,15.4c11.44-2.15,22.29-4.19,33.29-6.25
	c-0.25-5.29-0.49-10.33-0.74-15.61C314.88,229.54,303.7,231.64,292.02,233.84 M204.48,282.63c1.58,5.3,3.04,10.14,4.46,14.89
	c10.62-1.99,20.85-3.91,31.51-5.92c-1.21-5.22-2.35-10.1-3.5-15.07C225.84,278.62,215.42,280.58,204.48,282.63 M327.9,259.58
	c-11.04,2.08-21.55,4.05-32.52,6.11c0.64,5.26,1.26,10.23,1.88,15.25c10.95-2.07,21.18-3.98,31.46-5.92
	C328.44,269.78,328.18,264.83,327.9,259.58 M248.43,257.85c10.5-1.97,20.15-3.79,30.3-5.7c-0.6-5.17-1.18-10.17-1.78-15.34
	c-10.88,2.04-21.23,3.99-31.9,6C246.21,247.98,247.29,252.78,248.43,257.85 M247.56,322.8c-1.25-5.4-2.38-10.28-3.5-15.06
	c-10.58,2-20.49,3.86-30.59,5.75c1.54,5.17,2.97,9.99,4.43,14.88C227.83,326.51,237.31,324.74,247.56,322.8 M300.54,312.64
	c10.21-1.92,19.93-3.75,29.67-5.58c-0.25-5.32-0.48-10.27-0.73-15.47c-10.14,1.91-20.09,3.78-30.61,5.76
	C299.43,302.42,299.98,307.42,300.54,312.64 M141.62,229.77c2.1,5.04,4.1,9.8,6.04,14.43c9.59-1.8,18.83-3.54,28.21-5.3
	c-1.52-5.1-2.91-9.81-4.37-14.74C161.57,226.02,151.81,227.85,141.62,229.77 M280.38,268.53c-9.8,1.84-18.79,3.53-28.24,5.31
	c1.18,5.24,2.29,10.12,3.37,14.91c9.18-1.73,17.69-3.33,26.58-5C281.5,278.55,280.96,273.68,280.38,268.53 M368.05,187.3
	c-9.66,1.82-18.82,3.53-27.99,5.26c0.24,5.32,0.47,10.28,0.71,15.41c8.88-1.68,17.59-3.31,26.33-4.95
	C367.43,197.63,367.73,192.55,368.05,187.3 M160.32,274.33c8.45-1.59,16.38-3.07,24.48-4.6c-1.51-5.12-2.94-9.96-4.36-14.81
	c-8.82,1.66-17.31,3.26-26.18,4.93C156.37,264.88,158.31,269.54,160.32,274.33 M262.61,319.96c8-1.51,15.19-2.86,22.9-4.3
	c-0.6-5.17-1.19-10.18-1.79-15.34c-8.43,1.58-16.3,3.07-24.5,4.61C260.39,310.11,261.47,314.91,262.61,319.96 M342.36,240.08
	c7.63-1.43,15.1-2.84,22.57-4.25c0.33-5.38,0.64-10.47,0.96-15.79c-8.44,1.59-16.38,3.08-24.35,4.58
	C341.83,229.9,342.09,234.86,342.36,240.08 M166.85,289.78c2.17,5.13,4.17,9.88,6.16,14.6c7.08-1.33,13.8-2.59,20.71-3.89
	c-1.48-5.09-2.89-9.92-4.35-14.94C181.96,286.93,174.8,288.28,166.85,289.78 M363.69,252.84c-7.19,1.35-13.85,2.6-20.57,3.87
	c0.26,5.32,0.51,10.34,0.77,15.58c6.46-1.22,12.54-2.37,18.9-3.56C363.09,263.42,363.39,258.23,363.69,252.84 M198.34,316.27
	c-6.28,1.18-12.34,2.31-18.83,3.54c2.11,5.04,4.11,9.79,6.12,14.6c5.75-1.08,11.22-2.11,16.99-3.19
	C201.16,326.12,199.77,321.3,198.34,316.27 M344.63,288.73c0.29,5.3,0.56,10.41,0.84,15.5c5.47-1.02,10.32-1.94,15.21-2.86
	c0.3-5.39,0.57-10.44,0.87-15.83C355.59,286.67,350.25,287.67,344.63,288.73 M163.94,322.51c-14.6,2.74-28.91,5.46-43.22,8.11
	c-5.25,0.97-8.92-1.68-9.57-6.74c-0.59-4.57,1.92-7.95,6.82-8.89c12.91-2.48,25.84-4.88,39.52-7.45c-2.08-5.12-4.01-9.87-6.13-15.08
	c-4.6,0.87-9.18,1.78-13.78,2.58c-5.12,0.88-8.65-1.55-9.41-6.34c-0.77-4.8,1.74-8.23,6.88-9.32c3.05-0.64,6.12-1.16,9.81-1.85
	c-2.15-5.24-4.1-10-6.18-15.07c-10.38,1.95-20.52,3.85-30.66,5.76c-8.93,1.68-17.86,3.39-26.8,5.04c-5.58,1.03-9.13-1.15-10.02-6.05
	c-0.94-5.11,1.72-8.53,7.61-9.64c17.54-3.32,35.08-6.6,53.45-10.06c-2.42-5.78-4.57-11.17-6.9-16.46
	c-5.04-11.38-10.07-22.75-15.33-34.02c-1.3-2.78-3.3-5.23-5.2-7.64c-4.48-5.73-10.16-7.81-17.16-6.41
	c-11.83,2.37-23.7,4.5-35.57,6.71c-5.73,1.07-9.41-1.27-10.16-6.47c-0.71-4.91,1.9-8.14,7.56-9.21c12.01-2.28,24.04-4.46,36.04-6.8
	c12.33-2.41,22.43,1.6,30.67,11.49c8.42,10.11,13.3,22.32,18.35,34.45c0.13,0.3,0.28,0.59,0.67,1.41c1.5-0.28,3.15-0.59,4.8-0.9
	c77.15-14.52,154.31-29.04,231.46-43.56c9.99-1.88,12.92,0.87,12.21,11.69c-2.7,41.46-5.42,82.91-8.16,124.38
	c-0.5,7.68-1.93,9.28-9.15,10.63c-56.06,10.54-112.12,21.08-168.17,31.62c-1.81,0.34-3.61,0.68-7.09,1.34
	c4.92,6.22,8.74,11.8,13.32,16.58c3.72,3.88,8.84,3.59,13.77,2.66c44.81-8.44,89.63-16.87,134.44-25.31
	c6.47-1.21,12.93-2.47,19.41-3.65c5.11-0.93,8.68,1.39,9.58,6.11c0.95,4.98-1.62,8.55-7.08,9.58c-51.9,9.77-103.8,19.54-155.7,29.27
	c-12.84,2.41-22.88-2.8-30.98-13.14c-8.41-10.74-13.08-23.64-18.43-36.13C167.67,331.51,165.93,327.26,163.94,322.51 M226.3,229.65
	c-1.25-5.39-2.37-10.28-3.48-15.09c-12.43,2.33-24.2,4.55-36.13,6.79c1.53,5.16,2.96,9.99,4.42,14.91
	C202.82,234.06,214.17,231.93,226.3,229.65 M288.52,202.15c0.89,5.33,1.71,10.26,2.52,15.14c11.67-2.2,23.12-4.35,34.59-6.51
	c-0.27-5.29-0.52-10.25-0.78-15.47C312.9,197.56,301.11,199.78,288.52,202.15 M241.29,226.5c11.59-2.18,22.66-4.26,34.07-6.41
	c-0.64-5.31-1.23-10.15-1.82-15.14c-12.09,2.27-23.55,4.42-35.56,6.68C239.13,216.83,240.23,221.73,241.29,226.5 M230.01,245.58
	c-11.92,2.25-23.08,4.34-34.4,6.47c1.53,5.14,2.96,9.98,4.38,14.77c11.2-2.1,22.04-4.14,33.28-6.26
	C232.15,255.41,231.11,250.61,230.01,245.58 M292.02,233.84c0.62,5.2,1.21,10.2,1.81,15.4c11.44-2.15,22.29-4.19,33.29-6.25
	c-0.25-5.29-0.49-10.33-0.74-15.61C314.88,229.54,303.7,231.64,292.02,233.84 M204.48,282.63c1.58,5.3,3.04,10.14,4.46,14.89
	c10.62-1.99,20.85-3.91,31.51-5.92c-1.21-5.22-2.35-10.1-3.5-15.07C225.84,278.62,215.42,280.58,204.48,282.63 M327.9,259.58
	c-11.04,2.08-21.55,4.05-32.52,6.11c0.64,5.26,1.26,10.23,1.88,15.25c10.95-2.07,21.18-3.98,31.46-5.92
	C328.44,269.78,328.18,264.83,327.9,259.58 M248.43,257.85c10.5-1.97,20.15-3.79,30.3-5.7c-0.6-5.17-1.18-10.17-1.78-15.34
	c-10.88,2.04-21.23,3.99-31.9,6C246.21,247.98,247.29,252.78,248.43,257.85 M247.56,322.8c-1.25-5.4-2.38-10.28-3.5-15.06
	c-10.58,2-20.49,3.86-30.59,5.75c1.54,5.17,2.97,9.99,4.43,14.88C227.83,326.51,237.31,324.74,247.56,322.8 M300.54,312.64
	c10.21-1.92,19.93-3.75,29.67-5.58c-0.25-5.32-0.48-10.27-0.73-15.47c-10.14,1.91-20.09,3.78-30.61,5.76
	C299.43,302.42,299.98,307.42,300.54,312.64 M141.62,229.77c2.1,5.04,4.1,9.8,6.04,14.43c9.59-1.8,18.83-3.54,28.21-5.3
	c-1.52-5.1-2.91-9.81-4.37-14.74C161.57,226.02,151.81,227.85,141.62,229.77 M280.38,268.53c-9.8,1.84-18.79,3.53-28.24,5.31
	c1.18,5.24,2.29,10.12,3.37,14.91c9.18-1.73,17.69-3.33,26.58-5C281.5,278.55,280.96,273.68,280.38,268.53 M368.05,187.3
	c-9.66,1.82-18.82,3.53-27.99,5.26c0.24,5.32,0.47,10.28,0.71,15.41c8.88-1.68,17.59-3.31,26.33-4.95
	C367.43,197.63,367.73,192.55,368.05,187.3 M160.32,274.33c8.45-1.59,16.38-3.07,24.48-4.6c-1.51-5.12-2.94-9.96-4.36-14.81
	c-8.82,1.66-17.31,3.26-26.18,4.93C156.37,264.88,158.31,269.54,160.32,274.33 M262.61,319.96c8-1.51,15.19-2.86,22.9-4.3
	c-0.6-5.17-1.19-10.18-1.79-15.34c-8.43,1.58-16.3,3.07-24.5,4.61C260.39,310.11,261.47,314.91,262.61,319.96 M342.36,240.08
	c7.63-1.43,15.1-2.84,22.57-4.25c0.33-5.38,0.64-10.47,0.96-15.79c-8.44,1.59-16.38,3.08-24.35,4.58
	C341.83,229.9,342.09,234.86,342.36,240.08 M166.85,289.78c2.17,5.13,4.17,9.88,6.16,14.6c7.08-1.33,13.8-2.59,20.71-3.89
	c-1.48-5.09-2.89-9.92-4.35-14.94C181.96,286.93,174.8,288.28,166.85,289.78 M363.69,252.84c-7.19,1.35-13.85,2.6-20.57,3.87
	c0.26,5.32,0.51,10.34,0.77,15.58c6.46-1.22,12.54-2.37,18.9-3.56C363.09,263.42,363.39,258.23,363.69,252.84 M198.34,316.27
	c-6.28,1.18-12.34,2.31-18.83,3.54c2.11,5.04,4.11,9.79,6.12,14.6c5.75-1.08,11.22-2.11,16.99-3.19
	C201.16,326.12,199.77,321.3,198.34,316.27 M344.63,288.73c0.29,5.3,0.56,10.41,0.84,15.5c5.47-1.02,10.32-1.94,15.21-2.86
	c0.3-5.39,0.57-10.44,0.87-15.83C355.59,286.67,350.25,287.67,344.63,288.73 M163.94,322.51c-14.6,2.74-28.91,5.46-43.22,8.11
	c-5.25,0.97-8.92-1.68-9.57-6.74c-0.59-4.57,1.92-7.95,6.82-8.89c12.91-2.48,25.84-4.88,39.52-7.45c-2.08-5.12-4.01-9.87-6.13-15.08
	c-4.6,0.87-9.18,1.78-13.78,2.58c-5.12,0.88-8.65-1.55-9.41-6.34c-0.77-4.8,1.74-8.23,6.88-9.32c3.05-0.64,6.12-1.16,9.81-1.85
	c-2.15-5.24-4.1-10-6.18-15.07c-10.38,1.95-20.52,3.85-30.66,5.76c-8.93,1.68-17.86,3.39-26.8,5.04c-5.58,1.03-9.13-1.15-10.02-6.05
	c-0.94-5.11,1.72-8.53,7.61-9.64c17.54-3.32,35.08-6.6,53.45-10.06c-2.42-5.78-4.57-11.17-6.9-16.46
	c-5.04-11.38-10.07-22.75-15.33-34.02c-1.3-2.78-3.3-5.23-5.2-7.64c-4.48-5.73-10.16-7.81-17.16-6.41
	c-11.83,2.37-23.7,4.5-35.57,6.71c-5.73,1.07-9.41-1.27-10.16-6.47c-0.71-4.91,1.9-8.14,7.56-9.21c12.01-2.28,24.04-4.46,36.04-6.8
	c12.33-2.41,22.43,1.6,30.67,11.49c8.42,10.11,13.3,22.32,18.35,34.45c0.13,0.3,0.28,0.59,0.67,1.41c1.5-0.28,3.15-0.59,4.8-0.9
	c77.15-14.52,154.31-29.04,231.46-43.56c9.99-1.88,12.92,0.87,12.21,11.69c-2.7,41.46-5.42,82.91-8.16,124.38
	c-0.5,7.68-1.93,9.28-9.15,10.63c-56.06,10.54-112.12,21.08-168.17,31.62c-1.81,0.34-3.61,0.68-7.09,1.34
	c4.92,6.22,8.74,11.8,13.32,16.58c3.72,3.88,8.84,3.59,13.77,2.66c44.81-8.44,89.63-16.87,134.44-25.31
	c6.47-1.21,12.93-2.47,19.41-3.65c5.11-0.93,8.68,1.39,9.58,6.11c0.95,4.98-1.62,8.55-7.08,9.58c-51.9,9.77-103.8,19.54-155.7,29.27
	c-12.84,2.41-22.88-2.8-30.98-13.14c-8.41-10.74-13.08-23.64-18.43-36.13C167.67,331.51,165.93,327.26,163.94,322.51 M226.3,229.65
	c-1.25-5.39-2.37-10.28-3.48-15.09c-12.43,2.33-24.2,4.55-36.13,6.79c1.53,5.16,2.96,9.99,4.42,14.91
	C202.82,234.06,214.17,231.93,226.3,229.65 M288.52,202.15c0.89,5.33,1.71,10.26,2.52,15.14c11.67-2.2,23.12-4.35,34.59-6.51
	c-0.27-5.29-0.52-10.25-0.78-15.47C312.9,197.56,301.11,199.78,288.52,202.15 M241.29,226.5c11.59-2.18,22.66-4.26,34.07-6.41
	c-0.64-5.31-1.23-10.15-1.82-15.14c-12.09,2.27-23.55,4.42-35.56,6.68C239.13,216.83,240.23,221.73,241.29,226.5 M230.01,245.58
	c-11.92,2.25-23.08,4.34-34.4,6.47c1.53,5.14,2.96,9.98,4.38,14.77c11.2-2.1,22.04-4.14,33.28-6.26
	C232.15,255.41,231.11,250.61,230.01,245.58 M292.02,233.84c0.62,5.2,1.21,10.2,1.81,15.4c11.44-2.15,22.29-4.19,33.29-6.25
	c-0.25-5.29-0.49-10.33-0.74-15.61C314.88,229.54,303.7,231.64,292.02,233.84 M204.48,282.63c1.58,5.3,3.04,10.14,4.46,14.89
	c10.62-1.99,20.85-3.91,31.51-5.92c-1.21-5.22-2.35-10.1-3.5-15.07C225.84,278.62,215.42,280.58,204.48,282.63 M327.9,259.58
	c-11.04,2.08-21.55,4.05-32.52,6.11c0.64,5.26,1.26,10.23,1.88,15.25c10.95-2.07,21.18-3.98,31.46-5.92
	C328.44,269.78,328.18,264.83,327.9,259.58 M248.43,257.85c10.5-1.97,20.15-3.79,30.3-5.7c-0.6-5.17-1.18-10.17-1.78-15.34
	c-10.88,2.04-21.23,3.99-31.9,6C246.21,247.98,247.29,252.78,248.43,257.85 M247.56,322.8c-1.25-5.4-2.38-10.28-3.5-15.06
	c-10.58,2-20.49,3.86-30.59,5.75c1.54,5.17,2.97,9.99,4.43,14.88C227.83,326.51,237.31,324.74,247.56,322.8 M300.54,312.64
	c10.21-1.92,19.93-3.75,29.67-5.58c-0.25-5.32-0.48-10.27-0.73-15.47c-10.14,1.91-20.09,3.78-30.61,5.76
	C299.43,302.42,299.98,307.42,300.54,312.64 M141.62,229.77c2.1,5.04,4.1,9.8,6.04,14.43c9.59-1.8,18.83-3.54,28.21-5.3
	c-1.52-5.1-2.91-9.81-4.37-14.74C161.57,226.02,151.81,227.85,141.62,229.77 M280.38,268.53c-9.8,1.84-18.79,3.53-28.24,5.31
	c1.18,5.24,2.29,10.12,3.37,14.91c9.18-1.73,17.69-3.33,26.58-5C281.5,278.55,280.96,273.68,280.38,268.53 M368.05,187.3
	c-9.66,1.82-18.82,3.53-27.99,5.26c0.24,5.32,0.47,10.28,0.71,15.41c8.88-1.68,17.59-3.31,26.33-4.95
	C367.43,197.63,367.73,192.55,368.05,187.3 M160.32,274.33c8.45-1.59,16.38-3.07,24.48-4.6c-1.51-5.12-2.94-9.96-4.36-14.81
	c-8.82,1.66-17.31,3.26-26.18,4.93C156.37,264.88,158.31,269.54,160.32,274.33 M262.61,319.96c8-1.51,15.19-2.86,22.9-4.3
	c-0.6-5.17-1.19-10.18-1.79-15.34c-8.43,1.58-16.3,3.07-24.5,4.61C260.39,310.11,261.47,314.91,262.61,319.96 M342.36,240.08
	c7.63-1.43,15.1-2.84,22.57-4.25c0.33-5.38,0.64-10.47,0.96-15.79c-8.44,1.59-16.38,3.08-24.35,4.58
	C341.83,229.9,342.09,234.86,342.36,240.08 M166.85,289.78c2.17,5.13,4.17,9.88,6.16,14.6c7.08-1.33,13.8-2.59,20.71-3.89
	c-1.48-5.09-2.89-9.92-4.35-14.94C181.96,286.93,174.8,288.28,166.85,289.78 M363.69,252.84c-7.19,1.35-13.85,2.6-20.57,3.87
	c0.26,5.32,0.51,10.34,0.77,15.58c6.46-1.22,12.54-2.37,18.9-3.56C363.09,263.42,363.39,258.23,363.69,252.84 M198.34,316.27
	c-6.28,1.18-12.34,2.31-18.83,3.54c2.11,5.04,4.11,9.79,6.12,14.6c5.75-1.08,11.22-2.11,16.99-3.19
	C201.16,326.12,199.77,321.3,198.34,316.27 M344.63,288.73c0.29,5.3,0.56,10.41,0.84,15.5c5.47-1.02,10.32-1.94,15.21-2.86
	c0.3-5.39,0.57-10.44,0.87-15.83C355.59,286.67,350.25,287.67,344.63,288.73"/>
<path class="st2" d="M382.17,394.87c2.91,16.95-7.79,33.72-23.46,36.75c-17.07,3.3-32.57-7.71-35.57-25.26
	c-3.04-17.73,7.42-34.1,23.83-37.28C363.81,365.82,379.11,377.02,382.17,394.87 M367.34,397.43c-1.48-8.33-9.54-14.25-17.39-12.74
	c-7.84,1.5-13.47,10.04-12.13,18.39c1.37,8.51,9.75,14.64,17.68,12.92C363.41,414.28,368.82,405.8,367.34,397.43"/>
<path class="st2" d="M239.43,454.03c-16.65,3.1-31.75-8.42-34.76-26.5c-2.78-16.76,8.22-33.29,24.12-36.24
	c16.94-3.14,32.19,8.12,35.14,25.92C266.79,434.73,256.02,450.95,239.43,454.03 M231.9,406.92c-7.95,1.4-13.56,9.64-12.36,18.16
	c1.19,8.51,9.47,14.78,17.47,13.23c7.81-1.51,13.47-10.11,12.12-18.41C247.79,411.58,239.76,405.54,231.9,406.92"/>
<path class="st1" d="M90.82,287.64c7.25-1.36,14.5-2.76,21.77-4.08c5.72-1.03,9.43,1.49,10.18,6.78c0.71,4.96-2,8.58-7.41,9.62
	c-14.82,2.85-29.66,5.63-44.49,8.4c-5.58,1.04-9.39-1.58-10.17-6.85c-0.74-4.98,1.95-8.53,7.4-9.58
	C75.66,290.45,83.24,289.07,90.82,287.64"/>
<path class="st1" d="M158.91,129.39l-6.3,9c-3.65-2.53-6.74-3.57-9.28-3.13c-1.39,0.25-2.42,0.73-3.11,1.46
	c-0.68,0.73-0.94,1.53-0.79,2.4c0.12,0.67,0.48,1.23,1.07,1.7c0.59,0.47,1.96,1.02,4.1,1.63l4.92,1.47
	c5.18,1.51,8.88,3.33,11.09,5.47c2.22,2.13,3.61,4.84,4.19,8.13c0.77,4.37-0.19,8.31-2.89,11.81c-2.7,3.49-6.75,5.72-12.15,6.67
	c-7.18,1.27-13.41-0.53-18.69-5.38l6.15-9.63c1.74,1.43,3.68,2.5,5.82,3.2c2.13,0.7,3.95,0.92,5.46,0.65
	c1.63-0.29,2.87-0.91,3.73-1.88c0.86-0.96,1.19-1.95,1.01-2.98c-0.33-1.9-2.46-3.44-6.36-4.62l-4.54-1.35
	c-8.67-2.61-13.55-6.94-14.61-12.97c-0.69-3.89,0.23-7.49,2.74-10.78c2.52-3.29,6.12-5.35,10.8-6.17c3.2-0.56,6.33-0.39,9.4,0.52
	C153.74,125.52,156.48,127.11,158.91,129.39"/>
<path class="st1" d="M167.97,142.14l7.35-1.3l2.46,13.95c0.48,2.72,1,4.57,1.56,5.55c0.56,1,1.31,1.71,2.24,2.15
	c0.93,0.44,2,0.55,3.21,0.34c1.21-0.21,2.19-0.68,2.93-1.41c0.75-0.72,1.23-1.68,1.44-2.87c0.16-0.89-0.01-2.7-0.49-5.43l-2.5-14.19
	l7.27-1.28l2.16,12.27c0.89,5.06,1.11,8.59,0.64,10.6c-0.57,2.45-1.71,4.44-3.39,5.99c-1.68,1.56-3.99,2.59-6.93,3.11
	c-3.18,0.56-5.87,0.3-8.08-0.77c-2.21-1.07-3.94-2.81-5.19-5.21c-0.87-1.66-1.72-4.8-2.54-9.43L167.97,142.14z"/>
<path class="st1" d="M207.94,135.1l0.56,3.19c1.08-1.54,2.33-2.78,3.74-3.71c1.41-0.92,2.99-1.54,4.73-1.85
	c3.78-0.67,7.25,0.2,10.39,2.59c3.15,2.39,5.12,5.83,5.91,10.3c0.76,4.31,0.03,8.16-2.19,11.55c-2.22,3.38-5.21,5.41-8.95,6.07
	c-1.67,0.29-3.28,0.27-4.82-0.07c-1.54-0.33-3.14-1.06-4.8-2.16l4.41,25.02l-7.22,1.27l-8.98-50.93L207.94,135.1z M216.64,139.71
	c-2.28,0.4-4.05,1.52-5.29,3.35c-1.23,1.83-1.63,4-1.18,6.52c0.45,2.58,1.58,4.52,3.36,5.85c1.79,1.32,3.84,1.78,6.12,1.38
	c2.22-0.39,3.95-1.53,5.18-3.41c1.23-1.88,1.63-4.08,1.19-6.58c-0.44-2.49-1.55-4.39-3.32-5.72
	C220.93,139.77,218.91,139.31,216.64,139.71"/>
<path class="st1" d="M268.68,141.49l-23.36,4.12c0.7,2.01,1.9,3.49,3.57,4.44c1.68,0.96,3.65,1.24,5.93,0.83
	c2.72-0.48,4.89-1.84,6.51-4.08l6.63,1.79c-1.15,2.44-2.69,4.37-4.64,5.78c-1.95,1.42-4.39,2.38-7.31,2.9
	c-4.55,0.8-8.5,0.02-11.86-2.34c-3.36-2.36-5.43-5.7-6.19-10.01c-0.78-4.42,0-8.34,2.34-11.77c2.33-3.42,5.65-5.51,9.94-6.27
	c4.56-0.8,8.54,0,11.91,2.42c3.37,2.42,5.48,6.02,6.33,10.82L268.68,141.49z M260.41,137.05c-0.77-1.53-1.95-2.68-3.54-3.44
	c-1.6-0.76-3.32-0.98-5.19-0.65c-2.03,0.36-3.71,1.24-5.03,2.65c-0.84,0.88-1.51,2.29-2.01,4.23L260.41,137.05z"/>
<path class="st1" d="M269.94,124.16l6.23-1.1l0.64,3.65c0.42-1.56,1.13-2.81,2.11-3.75c0.99-0.95,2.15-1.53,3.48-1.77
	c0.94-0.17,1.97-0.09,3.08,0.22l-1.16,6.66c-0.92-0.27-1.67-0.37-2.21-0.27c-1.12,0.2-1.94,1.06-2.47,2.58
	c-0.53,1.52-0.43,4.3,0.28,8.35l0.27,1.41l2.07,11.72l-7.22,1.27L269.94,124.16z"/>
<path class="st1" d="M307.54,121.71l-3.71,5.29c-2.15-1.49-3.97-2.1-5.46-1.84c-0.82,0.14-1.42,0.43-1.83,0.85
	c-0.4,0.43-0.56,0.9-0.47,1.41c0.07,0.39,0.29,0.72,0.63,1c0.35,0.28,1.15,0.6,2.41,0.97l2.9,0.86c3.04,0.89,5.22,1.96,6.52,3.22
	c1.3,1.25,2.13,2.84,2.47,4.78c0.45,2.57-0.11,4.89-1.7,6.95c-1.59,2.06-3.97,3.36-7.15,3.92c-4.23,0.75-7.89-0.31-11-3.17
	l3.62-5.66c1.03,0.84,2.17,1.47,3.42,1.88c1.26,0.42,2.32,0.54,3.21,0.38c0.96-0.17,1.69-0.53,2.2-1.1c0.51-0.57,0.71-1.15,0.6-1.76
	c-0.2-1.12-1.44-2.02-3.75-2.72l-2.66-0.79c-5.1-1.54-7.96-4.08-8.59-7.63c-0.4-2.29,0.13-4.4,1.61-6.34
	c1.48-1.93,3.59-3.15,6.35-3.63c1.88-0.33,3.73-0.23,5.53,0.3C304.49,119.43,306.11,120.36,307.54,121.71"/>
<polygon class="st1" points="310.07,94.36 317.34,93.08 321.23,115.12 325.54,114.36 326.65,120.61 322.33,121.38 326.34,144.1 
	319.07,145.38 315.06,122.66 311.33,123.31 310.23,117.06 313.96,116.4 "/>
<path class="st1" d="M342.91,110.52c2.74-0.48,5.43-0.25,8.07,0.69c2.65,0.94,4.85,2.47,6.61,4.57c1.76,2.11,2.88,4.52,3.36,7.23
	c0.48,2.74,0.26,5.41-0.68,8.03c-0.94,2.62-2.46,4.8-4.57,6.56c-2.1,1.75-4.57,2.88-7.39,3.38c-4.15,0.73-7.96-0.12-11.42-2.56
	c-3.46-2.44-5.56-5.77-6.3-9.99c-0.8-4.53,0.2-8.59,2.98-12.2C336.01,113.1,339.13,111.19,342.91,110.52 M344.23,117.35
	c-2.26,0.4-4,1.51-5.22,3.35c-1.22,1.83-1.62,3.98-1.19,6.43c0.44,2.52,1.54,4.43,3.3,5.73c1.76,1.3,3.78,1.75,6.05,1.35
	c2.27-0.4,4.03-1.52,5.26-3.37c1.24-1.85,1.63-4.02,1.19-6.5c-0.44-2.49-1.54-4.38-3.3-5.67
	C348.58,117.38,346.55,116.94,344.23,117.35"/>
<path class="st1" d="M362.64,107.82l6.24-1.1l0.64,3.65c0.42-1.56,1.12-2.81,2.11-3.75c0.99-0.94,2.14-1.53,3.48-1.77
	c0.93-0.16,1.97-0.09,3.08,0.22l-1.16,6.66c-0.93-0.27-1.67-0.37-2.22-0.27c-1.12,0.2-1.94,1.06-2.47,2.58
	c-0.52,1.52-0.44,4.3,0.28,8.35l0.28,1.41l2.07,11.72l-7.22,1.27L362.64,107.82z"/>
<path class="st1" d="M404.29,102.16l-6.21,22.89c2.11,0.22,3.96-0.22,5.54-1.34c1.58-1.11,2.67-2.78,3.27-5.01
	c0.73-2.66,0.41-5.2-0.93-7.62l4.45-5.24c1.72,2.07,2.8,4.29,3.25,6.65c0.45,2.37,0.29,4.99-0.49,7.86
	c-1.21,4.45-3.61,7.7-7.17,9.74c-3.57,2.04-7.47,2.48-11.7,1.34c-4.34-1.18-7.55-3.55-9.66-7.12c-2.1-3.57-2.59-7.46-1.44-11.67
	c1.21-4.47,3.63-7.72,7.25-9.74c3.62-2.02,7.78-2.4,12.48-1.12L404.29,102.16z M396.75,107.77c-1.71,0.04-3.25,0.62-4.62,1.73
	c-1.37,1.11-2.3,2.59-2.8,4.42c-0.54,1.99-0.46,3.89,0.25,5.68c0.44,1.13,1.43,2.34,2.97,3.62L396.75,107.77z M404.29,102.16
	l-6.21,22.89c2.11,0.22,3.96-0.22,5.54-1.34c1.58-1.11,2.67-2.78,3.27-5.01c0.73-2.66,0.41-5.2-0.93-7.62l4.45-5.24
	c1.72,2.07,2.8,4.29,3.25,6.65c0.45,2.37,0.29,4.99-0.49,7.86c-1.21,4.45-3.61,7.7-7.17,9.74c-3.57,2.04-7.47,2.48-11.7,1.34
	c-4.34-1.18-7.55-3.55-9.66-7.12c-2.1-3.57-2.59-7.46-1.44-11.67c1.21-4.47,3.63-7.72,7.25-9.74c3.62-2.02,7.78-2.4,12.48-1.12
	L404.29,102.16z M396.75,107.77c-1.71,0.04-3.25,0.62-4.62,1.73c-1.37,1.11-2.3,2.59-2.8,4.42c-0.54,1.99-0.46,3.89,0.25,5.68
	c0.44,1.13,1.43,2.34,2.97,3.62L396.75,107.77z M404.29,102.16l-6.21,22.89c2.11,0.22,3.96-0.22,5.54-1.34
	c1.58-1.11,2.67-2.78,3.27-5.01c0.73-2.66,0.41-5.2-0.93-7.62l4.45-5.24c1.72,2.07,2.8,4.29,3.25,6.65
	c0.45,2.37,0.29,4.99-0.49,7.86c-1.21,4.45-3.61,7.7-7.17,9.74c-3.57,2.04-7.47,2.48-11.7,1.34c-4.34-1.18-7.55-3.55-9.66-7.12
	c-2.1-3.57-2.59-7.46-1.44-11.67c1.21-4.47,3.63-7.72,7.25-9.74c3.62-2.02,7.78-2.4,12.48-1.12L404.29,102.16z M396.75,107.77
	c-1.71,0.04-3.25,0.62-4.62,1.73c-1.37,1.11-2.3,2.59-2.8,4.42c-0.54,1.99-0.46,3.89,0.25,5.68c0.44,1.13,1.43,2.34,2.97,3.62
	L396.75,107.77z M404.29,102.16l-6.21,22.89c2.11,0.22,3.96-0.22,5.54-1.34c1.58-1.11,2.67-2.78,3.27-5.01
	c0.73-2.66,0.41-5.2-0.93-7.62l4.45-5.24c1.72,2.07,2.8,4.29,3.25,6.65c0.45,2.37,0.29,4.99-0.49,7.86
	c-1.21,4.45-3.61,7.7-7.17,9.74c-3.57,2.04-7.47,2.48-11.7,1.34c-4.34-1.18-7.55-3.55-9.66-7.12c-2.1-3.57-2.59-7.46-1.44-11.67
	c1.21-4.47,3.63-7.72,7.25-9.74c3.62-2.02,7.78-2.4,12.48-1.12L404.29,102.16z M396.75,107.77c-1.71,0.04-3.25,0.62-4.62,1.73
	c-1.37,1.11-2.3,2.59-2.8,4.42c-0.54,1.99-0.46,3.89,0.25,5.68c0.44,1.13,1.43,2.34,2.97,3.62L396.75,107.77z"/>
<g>
	<path class="st2" d="M165.15,120.32c0.98-0.44,2.58-0.9,4.14-1.17c1.44-0.25,3.15-0.31,4.47,0.32c1.21,0.55,2.08,1.56,2.35,3.11
		c0.36,2.04-0.3,3.73-1.4,4.94c-1.13,1.26-2.92,2.05-4.88,2.39c-0.58,0.1-1.06,0.14-1.43,0.15l-0.08,6.01l-3.38,0.6L165.15,120.32z
		 M168.43,127.17c0.37,0.01,0.76-0.01,1.34-0.11c2.08-0.37,3.21-1.95,2.93-3.55c-0.27-1.56-1.49-1.86-2.83-1.62
		c-0.65,0.11-1.09,0.24-1.37,0.36L168.43,127.17z"/>
	<path class="st2" d="M182.12,117l-0.09,6.51l5.86-1.03l0.09-6.51l3.45-0.61l-0.22,16.67l-3.45,0.61l0.08-7l-5.84,1.03l-0.1,7
		l-3.45,0.61l0.22-16.67L182.12,117z"/>
	<path class="st2" d="M194.41,131.47l0.22-16.67l4.05-0.71l3.21,5.78c1.01,1.94,1.74,3.54,2.43,5.25l0.07-0.01
		c-0.22-1.66-0.32-3.47-0.28-5.92l0.07-6.06l3.21-0.57l-0.2,16.67l-3.57,0.63l-3.39-6.04c-1.1-2.05-1.79-3.44-2.57-5.35l-0.07,0.04
		c0.08,1.59,0.11,3.95,0.07,6.58l-0.06,5.83L194.41,131.47z"/>
	<path class="st2" d="M224.71,116.16c0.52,2.94-0.01,5.97-1.53,8.12c-1.25,1.73-3.13,2.95-5.55,3.37c-4.19,0.74-7.06-1.82-7.72-5.57
		c-0.51-2.92,0.05-6.01,1.62-8.16c1.25-1.7,3.16-2.93,5.48-3.34C221.28,109.83,224.03,112.3,224.71,116.16z M214.56,115.23
		c-1.07,1.5-1.34,4.14-1,6.08c0.4,2.27,1.73,3.79,4.07,3.38c1.01-0.18,1.88-0.8,2.5-1.65c1.04-1.49,1.27-4.27,0.94-6.14
		c-0.35-2.01-1.41-3.82-3.95-3.37C216.04,113.71,215.16,114.34,214.56,115.23z"/>
	<path class="st2" d="M240.72,123.3l-0.19-6.83c-0.05-1.79-0.08-4.08-0.03-6.49l-0.07,0.01c-0.52,2.24-1.13,4.64-1.7,6.57
		l-2.14,7.19l-2.68,0.47l-1.73-6.43c-0.46-1.75-0.97-3.95-1.44-6.09l-0.05,0.01c-0.08,2.21-0.13,4.71-0.23,6.53l-0.43,6.94
		l-3.16,0.56l1.2-16.85l4.62-0.81l1.58,6.04c0.36,1.49,0.85,3.3,1.2,5.09l0.09-0.02c0.31-1.9,0.83-3.95,1.27-5.53l1.91-6.65
		l4.67-0.82l0.67,16.52L240.72,123.3z"/>
	<path class="st2" d="M251.51,105.09c0.98-0.44,2.58-0.9,4.14-1.17c1.44-0.25,3.15-0.31,4.47,0.32c1.21,0.55,2.08,1.56,2.35,3.11
		c0.36,2.04-0.3,3.73-1.4,4.94c-1.13,1.26-2.92,2.05-4.88,2.39c-0.58,0.1-1.06,0.14-1.43,0.15l-0.08,6.01l-3.38,0.6L251.51,105.09z
		 M254.8,111.94c0.37,0.01,0.76-0.01,1.34-0.11c2.08-0.37,3.21-1.95,2.93-3.55c-0.27-1.56-1.49-1.86-2.83-1.62
		c-0.65,0.11-1.09,0.24-1.37,0.36L254.8,111.94z"/>
	<path class="st2" d="M274.1,110.36l-5.74,1.01l-0.05,4.03l6.44-1.14l-0.03,3.04l-9.89,1.74l0.22-16.67l9.55-1.68l-0.05,3.05
		l-6.08,1.07l-0.06,3.57l5.74-1.01L274.1,110.36z"/>
	<path class="st2" d="M277.2,116.87l0.22-16.67l4.05-0.71l3.21,5.78c1.01,1.94,1.74,3.54,2.43,5.25l0.07-0.01
		c-0.22-1.66-0.32-3.47-0.28-5.92l0.07-6.06l3.21-0.57l-0.2,16.67l-3.57,0.63l-3.39-6.04c-1.1-2.05-1.79-3.44-2.57-5.35l-0.07,0.04
		c0.08,1.59,0.11,3.95,0.07,6.58l-0.06,5.83L277.2,116.87z"/>
	<path class="st2" d="M296.82,96.78l-0.09,6.51l5.86-1.03l0.09-6.51l3.45-0.61l-0.22,16.67l-3.45,0.61l0.07-7l-5.84,1.03l-0.1,7
		l-3.45,0.61l0.22-16.67L296.82,96.78z"/>
</g>
</svg>
