<svg id="Layer_1" data-name="Layer 1" xmlns="http://www.w3.org/2000/svg" viewBox="0 0 501 501"><defs><style>.cls-1{fill:#009183;stroke:#1d1d1b;stroke-miterlimit:10;}.cls-2{fill:#fff;}.cls-3{fill:#ffed00;}</style></defs><title>RoundLogo</title><circle class="cls-1" cx="250.5" cy="250.5" r="250"/><path class="cls-2" d="M163.94,322.51c-14.6,2.74-28.91,5.46-43.21,8.11-5.25,1-8.93-1.68-9.58-6.75-.59-4.57,1.92-7.95,6.83-8.89,12.91-2.47,25.84-4.88,39.52-7.45l-6.14-15.07c-4.6.86-9.18,1.78-13.78,2.57-5.12.89-8.65-1.54-9.41-6.34s1.74-8.23,6.88-9.31c3-.64,6.13-1.16,9.81-1.85-2.14-5.24-4.1-10-6.17-15.08L108,268.21c-8.94,1.69-17.87,3.39-26.8,5-5.58,1-9.13-1.15-10-6.05-.93-5.11,1.72-8.52,7.61-9.64,17.54-3.32,35.08-6.6,53.45-10.06-2.42-5.78-4.56-11.17-6.9-16.46-5-11.38-10.07-22.76-15.33-34a41,41,0,0,0-5.2-7.65c-4.48-5.73-10.16-7.81-17.15-6.41-11.83,2.37-23.71,4.5-35.57,6.72-5.73,1.07-9.41-1.28-10.16-6.47-.72-4.92,1.9-8.14,7.56-9.21,12-2.28,24-4.46,36-6.8,12.33-2.41,22.42,1.6,30.66,11.49,8.43,10.11,13.31,22.33,18.36,34.45.13.3.28.59.67,1.41l4.8-.9,231.47-43.56c10-1.88,12.91.87,12.21,11.7q-4.05,62.18-8.16,124.37c-.51,7.68-1.93,9.28-9.16,10.64L198.24,348.42l-7.09,1.33c4.93,6.22,8.75,11.81,13.32,16.58,3.72,3.88,8.85,3.59,13.78,2.66l134.44-25.3c6.47-1.22,12.92-2.47,19.4-3.65,5.12-.93,8.68,1.38,9.58,6.11.95,5-1.62,8.55-7.08,9.58Q296.76,370.39,218.89,385c-12.84,2.4-22.88-2.8-31-13.15-8.41-10.74-13.07-23.63-18.43-36.13-1.81-4.22-3.55-8.47-5.54-13.22m62.36-92.86c-1.25-5.39-2.37-10.28-3.48-15.09l-36.14,6.79,4.42,14.92,35.2-6.62m62.22-27.5c.89,5.33,1.71,10.26,2.52,15.14l34.59-6.5c-.27-5.3-.52-10.25-.78-15.48l-36.33,6.84M241.29,226.5l34.07-6.4c-.63-5.32-1.22-10.16-1.82-15.14L238,211.64c1.15,5.19,2.25,10.09,3.31,14.86M230,245.58,195.61,252,200,266.81l33.28-6.26c-1.12-5.14-2.16-9.94-3.26-15m62-11.74c.62,5.2,1.21,10.2,1.82,15.4L327.12,243c-.24-5.29-.49-10.34-.73-15.61L292,233.84m-87.54,48.79c1.59,5.31,3,10.14,4.46,14.9l31.51-5.92c-1.21-5.23-2.35-10.11-3.5-15.08l-32.47,6.1M327.9,259.58l-32.52,6.11c.64,5.26,1.26,10.23,1.88,15.25L328.72,275c-.28-5.24-.54-10.19-.82-15.44m-79.47-1.73,30.3-5.69c-.6-5.18-1.18-10.18-1.78-15.34l-31.9,6,3.38,15m-.87,64.95-3.49-15.06-30.59,5.76c1.53,5.16,3,10,4.43,14.88,9.92-1.87,19.4-3.64,29.65-5.58m53-10.16,29.67-5.58c-.25-5.32-.48-10.26-.73-15.47l-30.6,5.76c.55,5.07,1.1,10.07,1.66,15.29M141.62,229.77c2.1,5,4.1,9.8,6,14.43l28.21-5.31c-1.52-5.1-2.91-9.81-4.38-14.74l-29.87,5.62m138.76,38.76-28.24,5.31c1.19,5.24,2.29,10.12,3.37,14.91l26.58-5c-.59-5.2-1.13-10.07-1.71-15.22m87.67-81.23-28,5.26c.24,5.31.47,10.27.7,15.41L367.1,203c.33-5.39.63-10.47.95-15.72m-207.73,87,24.48-4.59c-1.51-5.13-2.94-10-4.37-14.81l-26.17,4.92c2.11,5,4.05,9.69,6.06,14.48M262.61,320l22.9-4.3c-.6-5.17-1.18-10.18-1.78-15.33-8.43,1.57-16.31,3.06-24.51,4.6l3.39,15m79.75-79.88,22.57-4.25c.34-5.38.64-10.47,1-15.78l-24.35,4.58c.28,5.27.54,10.23.81,15.45m-175.51,49.7c2.16,5.12,4.16,9.87,6.16,14.6l20.71-3.89c-1.49-5.09-2.89-9.93-4.35-14.95l-22.52,4.24m196.84-36.94-20.57,3.87c.27,5.32.51,10.34.77,15.57l18.9-3.56c.3-5.3.6-10.49.9-15.88M198.34,316.27l-18.83,3.53,6.11,14.6c5.75-1.08,11.22-2.12,17-3.19-1.45-5.09-2.84-9.91-4.27-14.94m146.29-27.54c.28,5.3.56,10.42.83,15.5l15.21-2.86c.3-5.39.57-10.44.88-15.82l-16.92,3.18" transform="translate(0.5 0.5)"/><path class="cls-3" d="M382.17,394.87c2.92,16.94-7.79,33.72-23.46,36.74-17.06,3.3-32.57-7.71-35.57-25.26-3-17.73,7.42-34.1,23.82-37.28,16.85-3.25,32.15,7.95,35.21,25.8m-14.83,2.56c-1.48-8.33-9.54-14.25-17.39-12.74s-13.47,10-12.14,18.39c1.37,8.51,9.75,14.64,17.68,12.92s13.33-10.2,11.85-18.57" transform="translate(0.5 0.5)"/><path class="cls-3" d="M239.43,454c-16.65,3.11-31.76-8.41-34.77-26.5-2.77-16.76,8.22-33.29,24.12-36.24,16.94-3.13,32.19,8.13,35.13,25.92C266.79,434.73,256,451,239.43,454m-7.53-47.11c-8,1.4-13.56,9.64-12.37,18.16S229,439.86,237,438.32c7.81-1.51,13.47-10.11,12.13-18.42s-9.37-14.36-17.23-13" transform="translate(0.5 0.5)"/><path class="cls-2" d="M90.82,287.64c7.25-1.36,14.49-2.77,21.76-4.08,5.72-1,9.43,1.5,10.18,6.78.72,5-2,8.58-7.41,9.62q-22.23,4.28-44.49,8.4c-5.58,1-9.39-1.58-10.17-6.85-.74-5,2-8.53,7.4-9.58,7.57-1.48,15.15-2.86,22.73-4.29" transform="translate(0.5 0.5)"/><path class="cls-2" d="M158.91,129.39l-6.3,9q-5.48-3.79-9.28-3.13a5.47,5.47,0,0,0-3.11,1.46,2.73,2.73,0,0,0-.79,2.4,2.78,2.78,0,0,0,1.08,1.71,14.13,14.13,0,0,0,4.09,1.63l4.92,1.46q7.78,2.28,11.09,5.47a15.21,15.21,0,0,1,1.31,19.94q-4,5.23-12.15,6.66a20.86,20.86,0,0,1-18.69-5.38l6.14-9.63a17.84,17.84,0,0,0,5.82,3.2,11.38,11.38,0,0,0,5.46.65,6.27,6.27,0,0,0,3.73-1.87,3.46,3.46,0,0,0,1-3c-.33-1.9-2.46-3.44-6.36-4.62L142.34,154q-13-3.91-14.61-13a13.29,13.29,0,0,1,2.74-10.78,16.67,16.67,0,0,1,10.8-6.18,20.32,20.32,0,0,1,17.64,5.3" transform="translate(0.5 0.5)"/><path class="cls-2" d="M168,142.14l7.35-1.29,2.46,14a19.6,19.6,0,0,0,1.56,5.56,5.12,5.12,0,0,0,2.23,2.15,5.22,5.22,0,0,0,3.22.33,5.29,5.29,0,0,0,2.93-1.41,5.13,5.13,0,0,0,1.43-2.87,19.69,19.69,0,0,0-.49-5.43l-2.5-14.19,7.27-1.29,2.16,12.28q1.33,7.59.64,10.6a11.5,11.5,0,0,1-3.39,6,13.41,13.41,0,0,1-6.93,3.1,13.07,13.07,0,0,1-8.08-.77,11.43,11.43,0,0,1-5.19-5.21c-.88-1.65-1.73-4.8-2.54-9.43Z" transform="translate(0.5 0.5)"/><path class="cls-2" d="M207.94,135.1l.57,3.19a13.84,13.84,0,0,1,3.73-3.71,12.58,12.58,0,0,1,4.73-1.85,12.85,12.85,0,0,1,10.4,2.59,15.76,15.76,0,0,1,5.9,10.3,15.38,15.38,0,0,1-2.18,11.55,13.13,13.13,0,0,1-9,6.07,12.37,12.37,0,0,1-4.82-.08,14.18,14.18,0,0,1-4.8-2.15l4.41,25-7.21,1.27-9-50.93Zm8.7,4.61a7.71,7.71,0,0,0-5.29,3.35,8.56,8.56,0,0,0-1.18,6.52,8.8,8.8,0,0,0,3.36,5.85,7.68,7.68,0,0,0,6.12,1.38,7.5,7.5,0,0,0,5.18-3.41,8.83,8.83,0,0,0,1.19-6.58,8.73,8.73,0,0,0-3.31-5.72,7.53,7.53,0,0,0-6.07-1.39" transform="translate(0.5 0.5)"/><path class="cls-2" d="M268.68,141.49l-23.35,4.11A7.84,7.84,0,0,0,248.9,150a8.59,8.59,0,0,0,5.92.84,9.85,9.85,0,0,0,6.51-4.09l6.63,1.8a14.63,14.63,0,0,1-4.64,5.77,17.25,17.25,0,0,1-7.31,2.9,15.27,15.27,0,0,1-11.87-2.34,14.9,14.9,0,0,1-6.19-10,15.37,15.37,0,0,1,2.34-11.76,14.55,14.55,0,0,1,9.94-6.27,15.13,15.13,0,0,1,11.91,2.41q5.06,3.63,6.33,10.82Zm-8.27-4.44a7.41,7.41,0,0,0-3.54-3.45,8.38,8.38,0,0,0-5.19-.65,8.79,8.79,0,0,0-5,2.65,9.58,9.58,0,0,0-2,4.23Z" transform="translate(0.5 0.5)"/><path class="cls-2" d="M269.94,124.16l6.23-1.1.64,3.65a8,8,0,0,1,2.11-3.75,6.58,6.58,0,0,1,3.49-1.76,6.88,6.88,0,0,1,3.08.22l-1.16,6.66a4.94,4.94,0,0,0-2.21-.27c-1.12.19-1.95,1.06-2.48,2.58s-.42,4.3.29,8.35l.27,1.41,2.07,11.72-7.22,1.27Z" transform="translate(0.5 0.5)"/><path class="cls-2" d="M307.54,121.71,303.83,127q-3.22-2.23-5.46-1.83a3.17,3.17,0,0,0-1.83.85,1.57,1.57,0,0,0,.17,2.41,8.27,8.27,0,0,0,2.41,1l2.9.86c3,.89,5.22,2,6.52,3.22a8.93,8.93,0,0,1,.77,11.72,11,11,0,0,1-7.15,3.93,12.32,12.32,0,0,1-11-3.17l3.62-5.67a10.61,10.61,0,0,0,3.42,1.88,6.71,6.71,0,0,0,3.21.39,3.69,3.69,0,0,0,2.19-1.1,2,2,0,0,0,.6-1.76c-.19-1.11-1.44-2-3.75-2.71l-2.66-.8q-7.65-2.31-8.59-7.63a7.83,7.83,0,0,1,1.61-6.34,9.8,9.8,0,0,1,6.35-3.63,12,12,0,0,1,10.38,3.12" transform="translate(0.5 0.5)"/><polygon class="cls-2" points="310.57 94.86 317.85 93.58 321.73 115.62 326.05 114.86 327.15 121.11 322.83 121.88 326.84 144.6 319.57 145.88 315.56 123.16 311.83 123.81 310.73 117.56 314.46 116.9 310.57 94.86"/><path class="cls-2" d="M342.91,110.52a15.65,15.65,0,0,1,8.07.7,14.93,14.93,0,0,1,6.61,4.57A15.27,15.27,0,0,1,361,123a15.45,15.45,0,0,1-.69,8,15,15,0,0,1-4.57,6.56,15.59,15.59,0,0,1-7.39,3.38,14.67,14.67,0,0,1-11.42-2.56,15.5,15.5,0,0,1,6-27.91m1.32,6.83A7.62,7.62,0,0,0,339,120.7a8.54,8.54,0,0,0-1.19,6.43,8.68,8.68,0,0,0,3.31,5.73,7.53,7.53,0,0,0,6.05,1.35,7.67,7.67,0,0,0,5.27-3.37,9.49,9.49,0,0,0-2.11-12.17,7.65,7.65,0,0,0-6.11-1.32" transform="translate(0.5 0.5)"/><path class="cls-2" d="M362.64,107.82l6.24-1.1.64,3.65a7.84,7.84,0,0,1,2.11-3.75,6.57,6.57,0,0,1,3.48-1.77,6.9,6.9,0,0,1,3.08.23L377,111.73a5.32,5.32,0,0,0-2.22-.27c-1.12.2-1.94,1.06-2.47,2.58s-.44,4.31.27,8.35l.28,1.41L375,135.52l-7.22,1.27Z" transform="translate(0.5 0.5)"/><path class="cls-2" d="M404.29,102.16l-6.21,22.89a7.84,7.84,0,0,0,5.53-1.34,8.56,8.56,0,0,0,3.28-5,9.85,9.85,0,0,0-.93-7.62l4.45-5.24a14.58,14.58,0,0,1,3.25,6.65,17.46,17.46,0,0,1-.49,7.86,15.23,15.23,0,0,1-7.17,9.73,14.89,14.89,0,0,1-11.7,1.34,15.36,15.36,0,0,1-9.65-7.12,14.57,14.57,0,0,1-1.44-11.67,15.12,15.12,0,0,1,7.25-9.74q5.43-3,12.48-1.12Zm-7.54,5.61a7.4,7.4,0,0,0-4.62,1.73,8.39,8.39,0,0,0-2.8,4.42,8.87,8.87,0,0,0,.25,5.68,9.76,9.76,0,0,0,3,3.62Z" transform="translate(0.5 0.5)"/><path class="cls-3" d="M165.15,120.32a19.23,19.23,0,0,1,4.14-1.18,7.72,7.72,0,0,1,4.47.32,4,4,0,0,1,2.36,3.12,5.72,5.72,0,0,1-1.4,4.93,8.47,8.47,0,0,1-4.89,2.39,10.16,10.16,0,0,1-1.43.16l-.07,6-3.38.59Zm3.28,6.85a7.23,7.23,0,0,0,1.34-.12c2.08-.36,3.21-2,2.93-3.55s-1.49-1.86-2.83-1.62a6.41,6.41,0,0,0-1.37.36Z" transform="translate(0.5 0.5)"/><path class="cls-3" d="M182.12,117l-.08,6.51,5.86-1L188,116l3.45-.61L191.22,132l-3.45.61.07-7-5.84,1-.09,7-3.45.61.22-16.67Z" transform="translate(0.5 0.5)"/><path class="cls-3" d="M194.41,131.47l.22-16.67,4-.72,3.22,5.78c1,1.94,1.73,3.54,2.43,5.25h.07a39.31,39.31,0,0,1-.28-5.93l.07-6.06,3.21-.56-.2,16.67-3.57.63-3.38-6a51.41,51.41,0,0,1-2.57-5.34l-.07,0c.08,1.59.1,4,.07,6.58l0,5.83Z" transform="translate(0.5 0.5)"/><path class="cls-3" d="M224.71,116.16a10.89,10.89,0,0,1-1.53,8.11,8.5,8.5,0,0,1-5.55,3.38c-4.19.74-7-1.82-7.72-5.58a10.9,10.9,0,0,1,1.63-8.16,8.57,8.57,0,0,1,5.48-3.33C221.28,109.83,224,112.3,224.71,116.16Zm-10.15-.93a8.92,8.92,0,0,0-1,6.08c.41,2.27,1.73,3.79,4.08,3.38a4.08,4.08,0,0,0,2.5-1.65c1-1.5,1.27-4.28.94-6.14-.36-2-1.42-3.82-3.95-3.38A3.88,3.88,0,0,0,214.56,115.23Z" transform="translate(0.5 0.5)"/><path class="cls-3" d="M240.72,123.3l-.19-6.82c-.05-1.8-.08-4.09,0-6.49l-.07,0c-.52,2.23-1.13,4.64-1.7,6.56l-2.14,7.19-2.68.48-1.73-6.44c-.45-1.74-1-4-1.44-6.09h0c-.08,2.21-.13,4.72-.23,6.53l-.43,6.94-3.16.56,1.2-16.85,4.62-.81,1.58,6c.36,1.49.86,3.3,1.2,5.09h.09a56.19,56.19,0,0,1,1.27-5.53l1.92-6.66,4.66-.82.67,16.51Z" transform="translate(0.5 0.5)"/><path class="cls-3" d="M251.51,105.09a19.23,19.23,0,0,1,4.14-1.18,7.72,7.72,0,0,1,4.47.33,4,4,0,0,1,2.36,3.11,5.74,5.74,0,0,1-1.4,4.94,8.59,8.59,0,0,1-4.89,2.39,9.93,9.93,0,0,1-1.43.15l-.07,6-3.38.6Zm3.29,6.85a6.3,6.3,0,0,0,1.33-.11c2.08-.37,3.21-2,2.93-3.56s-1.49-1.86-2.83-1.62a6.41,6.41,0,0,0-1.37.36Z" transform="translate(0.5 0.5)"/><path class="cls-3" d="M274.1,110.36l-5.75,1-.05,4,6.44-1.14,0,3-9.88,1.74.22-16.67,9.55-1.68-.06,3-6.08,1.08-.06,3.56,5.75-1Z" transform="translate(0.5 0.5)"/><path class="cls-3" d="M277.2,116.87l.22-16.67,4-.71,3.22,5.77c1,1.95,1.73,3.55,2.43,5.25h.07a40.67,40.67,0,0,1-.28-5.93l.07-6,3.21-.57-.2,16.67-3.57.63-3.38-6a51.41,51.41,0,0,1-2.57-5.34l-.07,0c.08,1.59.11,3.95.07,6.57l0,5.84Z" transform="translate(0.5 0.5)"/><path class="cls-3" d="M296.82,96.78l-.09,6.51,5.86-1,.09-6.51,3.45-.6-.22,16.67-3.45.61.08-7-5.84,1-.1,7-3.45.61.22-16.67Z" transform="translate(0.5 0.5)"/></svg>